<?xml version="1.0" encoding="utf-8" standalone="no"?>
<!DOCTYPE svg PUBLIC "-//W3C//DTD SVG 1.1//EN"
  "http://www.w3.org/Graphics/SVG/1.1/DTD/svg11.dtd">
<svg xmlns:xlink="http://www.w3.org/1999/xlink" width="720pt" height="576pt" viewBox="0 0 720 576" xmlns="http://www.w3.org/2000/svg" version="1.1">
 <metadata>
  <rdf:RDF xmlns:dc="http://purl.org/dc/elements/1.1/" xmlns:cc="http://creativecommons.org/ns#" xmlns:rdf="http://www.w3.org/1999/02/22-rdf-syntax-ns#">
   <cc:Work>
    <dc:type rdf:resource="http://purl.org/dc/dcmitype/StillImage"/>
    <dc:date>2025-02-18T20:12:04.516878</dc:date>
    <dc:format>image/svg+xml</dc:format>
    <dc:creator>
     <cc:Agent>
      <dc:title>Matplotlib v3.9.1, https://matplotlib.org/</dc:title>
     </cc:Agent>
    </dc:creator>
   </cc:Work>
  </rdf:RDF>
 </metadata>
 <defs>
  <style type="text/css">*{stroke-linejoin: round; stroke-linecap: butt}</style>
 </defs>
 <g id="figure_1">
  <g id="patch_1">
   <path d="M 0 576 
L 720 576 
L 720 0 
L 0 0 
z
" style="fill: #ffffff"/>
  </g>
  <g id="axes_1">
   <g id="patch_2">
    <path d="M 90 512.64 
L 648 512.64 
L 648 69.12 
L 90 69.12 
z
" style="fill: #ffffff"/>
   </g>
   <g id="patch_3">
    <path d="M 115.363636 512.64 
L 136.94971 512.64 
L 136.94971 502.08 
L 115.363636 502.08 
z
" clip-path="url(#p410f49a929)" style="fill: #1f77b4"/>
   </g>
   <g id="patch_4">
    <path d="M 142.346228 512.64 
L 163.932302 512.64 
L 163.932302 510.972632 
L 142.346228 510.972632 
z
" clip-path="url(#p410f49a929)" style="fill: #1f77b4"/>
   </g>
   <g id="patch_5">
    <path d="M 169.32882 512.64 
L 190.914894 512.64 
L 190.914894 506.526316 
L 169.32882 506.526316 
z
" clip-path="url(#p410f49a929)" style="fill: #1f77b4"/>
   </g>
   <g id="patch_6">
    <path d="M 196.311412 512.64 
L 217.897485 512.64 
L 217.897485 465.397895 
L 196.311412 465.397895 
z
" clip-path="url(#p410f49a929)" style="fill: #1f77b4"/>
   </g>
   <g id="patch_7">
    <path d="M 223.294004 512.64 
L 244.880077 512.64 
L 244.880077 512.084211 
L 223.294004 512.084211 
z
" clip-path="url(#p410f49a929)" style="fill: #1f77b4"/>
   </g>
   <g id="patch_8">
    <path d="M 250.276596 512.64 
L 271.862669 512.64 
L 271.862669 512.084211 
L 250.276596 512.084211 
z
" clip-path="url(#p410f49a929)" style="fill: #1f77b4"/>
   </g>
   <g id="patch_9">
    <path d="M 277.259188 512.64 
L 298.845261 512.64 
L 298.845261 495.410526 
L 277.259188 495.410526 
z
" clip-path="url(#p410f49a929)" style="fill: #1f77b4"/>
   </g>
   <g id="patch_10">
    <path d="M 304.241779 512.64 
L 325.827853 512.64 
L 325.827853 511.528421 
L 304.241779 511.528421 
z
" clip-path="url(#p410f49a929)" style="fill: #1f77b4"/>
   </g>
   <g id="patch_11">
    <path d="M 331.224371 512.64 
L 352.810445 512.64 
L 352.810445 494.854737 
L 331.224371 494.854737 
z
" clip-path="url(#p410f49a929)" style="fill: #1f77b4"/>
   </g>
   <g id="patch_12">
    <path d="M 358.206963 512.64 
L 379.793037 512.64 
L 379.793037 509.861053 
L 358.206963 509.861053 
z
" clip-path="url(#p410f49a929)" style="fill: #1f77b4"/>
   </g>
   <g id="patch_13">
    <path d="M 385.189555 512.64 
L 406.775629 512.64 
L 406.775629 510.972632 
L 385.189555 510.972632 
z
" clip-path="url(#p410f49a929)" style="fill: #1f77b4"/>
   </g>
   <g id="patch_14">
    <path d="M 412.172147 512.64 
L 433.758221 512.64 
L 433.758221 90.24 
L 412.172147 90.24 
z
" clip-path="url(#p410f49a929)" style="fill: #1f77b4"/>
   </g>
   <g id="patch_15">
    <path d="M 439.154739 512.64 
L 460.740812 512.64 
L 460.740812 512.084211 
L 439.154739 512.084211 
z
" clip-path="url(#p410f49a929)" style="fill: #1f77b4"/>
   </g>
   <g id="patch_16">
    <path d="M 466.137331 512.64 
L 487.723404 512.64 
L 487.723404 510.972632 
L 466.137331 510.972632 
z
" clip-path="url(#p410f49a929)" style="fill: #1f77b4"/>
   </g>
   <g id="patch_17">
    <path d="M 493.119923 512.64 
L 514.705996 512.64 
L 514.705996 509.861053 
L 493.119923 509.861053 
z
" clip-path="url(#p410f49a929)" style="fill: #1f77b4"/>
   </g>
   <g id="patch_18">
    <path d="M 520.102515 512.64 
L 541.688588 512.64 
L 541.688588 509.861053 
L 520.102515 509.861053 
z
" clip-path="url(#p410f49a929)" style="fill: #1f77b4"/>
   </g>
   <g id="patch_19">
    <path d="M 547.085106 512.64 
L 568.67118 512.64 
L 568.67118 503.191579 
L 547.085106 503.191579 
z
" clip-path="url(#p410f49a929)" style="fill: #1f77b4"/>
   </g>
   <g id="patch_20">
    <path d="M 574.067698 512.64 
L 595.653772 512.64 
L 595.653772 504.858947 
L 574.067698 504.858947 
z
" clip-path="url(#p410f49a929)" style="fill: #1f77b4"/>
   </g>
   <g id="patch_21">
    <path d="M 601.05029 512.64 
L 622.636364 512.64 
L 622.636364 511.528421 
L 601.05029 511.528421 
z
" clip-path="url(#p410f49a929)" style="fill: #1f77b4"/>
   </g>
   <g id="matplotlib.axis_1">
    <g id="xtick_1">
     <g id="line2d_1">
      <defs>
       <path id="mf989152137" d="M 0 0 
L 0 3.5 
" style="stroke: #000000; stroke-width: 0.8"/>
      </defs>
      <g>
       <use xlink:href="#mf989152137" x="126.156673" y="512.64" style="stroke: #000000; stroke-width: 0.8"/>
      </g>
     </g>
     <g id="text_1">
      <!-- IGHV1-2 -->
      <g transform="translate(128.916048 561.032187) rotate(-90) scale(0.1 -0.1)">
       <defs>
        <path id="DejaVuSans-49" d="M 628 4666 
L 1259 4666 
L 1259 0 
L 628 0 
L 628 4666 
z
" transform="scale(0.015625)"/>
        <path id="DejaVuSans-47" d="M 3809 666 
L 3809 1919 
L 2778 1919 
L 2778 2438 
L 4434 2438 
L 4434 434 
Q 4069 175 3628 42 
Q 3188 -91 2688 -91 
Q 1594 -91 976 548 
Q 359 1188 359 2328 
Q 359 3472 976 4111 
Q 1594 4750 2688 4750 
Q 3144 4750 3555 4637 
Q 3966 4525 4313 4306 
L 4313 3634 
Q 3963 3931 3569 4081 
Q 3175 4231 2741 4231 
Q 1884 4231 1454 3753 
Q 1025 3275 1025 2328 
Q 1025 1384 1454 906 
Q 1884 428 2741 428 
Q 3075 428 3337 486 
Q 3600 544 3809 666 
z
" transform="scale(0.015625)"/>
        <path id="DejaVuSans-48" d="M 628 4666 
L 1259 4666 
L 1259 2753 
L 3553 2753 
L 3553 4666 
L 4184 4666 
L 4184 0 
L 3553 0 
L 3553 2222 
L 1259 2222 
L 1259 0 
L 628 0 
L 628 4666 
z
" transform="scale(0.015625)"/>
        <path id="DejaVuSans-56" d="M 1831 0 
L 50 4666 
L 709 4666 
L 2188 738 
L 3669 4666 
L 4325 4666 
L 2547 0 
L 1831 0 
z
" transform="scale(0.015625)"/>
        <path id="DejaVuSans-31" d="M 794 531 
L 1825 531 
L 1825 4091 
L 703 3866 
L 703 4441 
L 1819 4666 
L 2450 4666 
L 2450 531 
L 3481 531 
L 3481 0 
L 794 0 
L 794 531 
z
" transform="scale(0.015625)"/>
        <path id="DejaVuSans-2d" d="M 313 2009 
L 1997 2009 
L 1997 1497 
L 313 1497 
L 313 2009 
z
" transform="scale(0.015625)"/>
        <path id="DejaVuSans-32" d="M 1228 531 
L 3431 531 
L 3431 0 
L 469 0 
L 469 531 
Q 828 903 1448 1529 
Q 2069 2156 2228 2338 
Q 2531 2678 2651 2914 
Q 2772 3150 2772 3378 
Q 2772 3750 2511 3984 
Q 2250 4219 1831 4219 
Q 1534 4219 1204 4116 
Q 875 4013 500 3803 
L 500 4441 
Q 881 4594 1212 4672 
Q 1544 4750 1819 4750 
Q 2544 4750 2975 4387 
Q 3406 4025 3406 3419 
Q 3406 3131 3298 2873 
Q 3191 2616 2906 2266 
Q 2828 2175 2409 1742 
Q 1991 1309 1228 531 
z
" transform="scale(0.015625)"/>
       </defs>
       <use xlink:href="#DejaVuSans-49"/>
       <use xlink:href="#DejaVuSans-47" x="29.492188"/>
       <use xlink:href="#DejaVuSans-48" x="106.982422"/>
       <use xlink:href="#DejaVuSans-56" x="182.177734"/>
       <use xlink:href="#DejaVuSans-31" x="250.585938"/>
       <use xlink:href="#DejaVuSans-2d" x="314.208984"/>
       <use xlink:href="#DejaVuSans-32" x="350.292969"/>
      </g>
     </g>
    </g>
    <g id="xtick_2">
     <g id="line2d_2">
      <g>
       <use xlink:href="#mf989152137" x="153.139265" y="512.64" style="stroke: #000000; stroke-width: 0.8"/>
      </g>
     </g>
     <g id="text_2">
      <!-- IGHV1-24 -->
      <g transform="translate(155.89864 567.394688) rotate(-90) scale(0.1 -0.1)">
       <defs>
        <path id="DejaVuSans-34" d="M 2419 4116 
L 825 1625 
L 2419 1625 
L 2419 4116 
z
M 2253 4666 
L 3047 4666 
L 3047 1625 
L 3713 1625 
L 3713 1100 
L 3047 1100 
L 3047 0 
L 2419 0 
L 2419 1100 
L 313 1100 
L 313 1709 
L 2253 4666 
z
" transform="scale(0.015625)"/>
       </defs>
       <use xlink:href="#DejaVuSans-49"/>
       <use xlink:href="#DejaVuSans-47" x="29.492188"/>
       <use xlink:href="#DejaVuSans-48" x="106.982422"/>
       <use xlink:href="#DejaVuSans-56" x="182.177734"/>
       <use xlink:href="#DejaVuSans-31" x="250.585938"/>
       <use xlink:href="#DejaVuSans-2d" x="314.208984"/>
       <use xlink:href="#DejaVuSans-32" x="350.292969"/>
       <use xlink:href="#DejaVuSans-34" x="413.916016"/>
      </g>
     </g>
    </g>
    <g id="xtick_3">
     <g id="line2d_3">
      <g>
       <use xlink:href="#mf989152137" x="180.121857" y="512.64" style="stroke: #000000; stroke-width: 0.8"/>
      </g>
     </g>
     <g id="text_3">
      <!-- IGHV1-69 -->
      <g transform="translate(182.881232 567.394688) rotate(-90) scale(0.1 -0.1)">
       <defs>
        <path id="DejaVuSans-36" d="M 2113 2584 
Q 1688 2584 1439 2293 
Q 1191 2003 1191 1497 
Q 1191 994 1439 701 
Q 1688 409 2113 409 
Q 2538 409 2786 701 
Q 3034 994 3034 1497 
Q 3034 2003 2786 2293 
Q 2538 2584 2113 2584 
z
M 3366 4563 
L 3366 3988 
Q 3128 4100 2886 4159 
Q 2644 4219 2406 4219 
Q 1781 4219 1451 3797 
Q 1122 3375 1075 2522 
Q 1259 2794 1537 2939 
Q 1816 3084 2150 3084 
Q 2853 3084 3261 2657 
Q 3669 2231 3669 1497 
Q 3669 778 3244 343 
Q 2819 -91 2113 -91 
Q 1303 -91 875 529 
Q 447 1150 447 2328 
Q 447 3434 972 4092 
Q 1497 4750 2381 4750 
Q 2619 4750 2861 4703 
Q 3103 4656 3366 4563 
z
" transform="scale(0.015625)"/>
        <path id="DejaVuSans-39" d="M 703 97 
L 703 672 
Q 941 559 1184 500 
Q 1428 441 1663 441 
Q 2288 441 2617 861 
Q 2947 1281 2994 2138 
Q 2813 1869 2534 1725 
Q 2256 1581 1919 1581 
Q 1219 1581 811 2004 
Q 403 2428 403 3163 
Q 403 3881 828 4315 
Q 1253 4750 1959 4750 
Q 2769 4750 3195 4129 
Q 3622 3509 3622 2328 
Q 3622 1225 3098 567 
Q 2575 -91 1691 -91 
Q 1453 -91 1209 -44 
Q 966 3 703 97 
z
M 1959 2075 
Q 2384 2075 2632 2365 
Q 2881 2656 2881 3163 
Q 2881 3666 2632 3958 
Q 2384 4250 1959 4250 
Q 1534 4250 1286 3958 
Q 1038 3666 1038 3163 
Q 1038 2656 1286 2365 
Q 1534 2075 1959 2075 
z
" transform="scale(0.015625)"/>
       </defs>
       <use xlink:href="#DejaVuSans-49"/>
       <use xlink:href="#DejaVuSans-47" x="29.492188"/>
       <use xlink:href="#DejaVuSans-48" x="106.982422"/>
       <use xlink:href="#DejaVuSans-56" x="182.177734"/>
       <use xlink:href="#DejaVuSans-31" x="250.585938"/>
       <use xlink:href="#DejaVuSans-2d" x="314.208984"/>
       <use xlink:href="#DejaVuSans-36" x="350.292969"/>
       <use xlink:href="#DejaVuSans-39" x="413.916016"/>
      </g>
     </g>
    </g>
    <g id="xtick_4">
     <g id="line2d_4">
      <g>
       <use xlink:href="#mf989152137" x="207.104449" y="512.64" style="stroke: #000000; stroke-width: 0.8"/>
      </g>
     </g>
     <g id="text_4">
      <!-- IGHV2-26 -->
      <g transform="translate(209.863824 567.394688) rotate(-90) scale(0.1 -0.1)">
       <use xlink:href="#DejaVuSans-49"/>
       <use xlink:href="#DejaVuSans-47" x="29.492188"/>
       <use xlink:href="#DejaVuSans-48" x="106.982422"/>
       <use xlink:href="#DejaVuSans-56" x="182.177734"/>
       <use xlink:href="#DejaVuSans-32" x="250.585938"/>
       <use xlink:href="#DejaVuSans-2d" x="314.208984"/>
       <use xlink:href="#DejaVuSans-32" x="350.292969"/>
       <use xlink:href="#DejaVuSans-36" x="413.916016"/>
      </g>
     </g>
    </g>
    <g id="xtick_5">
     <g id="line2d_5">
      <g>
       <use xlink:href="#mf989152137" x="234.087041" y="512.64" style="stroke: #000000; stroke-width: 0.8"/>
      </g>
     </g>
     <g id="text_5">
      <!-- IGHV3-11 -->
      <g transform="translate(236.846416 567.394688) rotate(-90) scale(0.1 -0.1)">
       <defs>
        <path id="DejaVuSans-33" d="M 2597 2516 
Q 3050 2419 3304 2112 
Q 3559 1806 3559 1356 
Q 3559 666 3084 287 
Q 2609 -91 1734 -91 
Q 1441 -91 1130 -33 
Q 819 25 488 141 
L 488 750 
Q 750 597 1062 519 
Q 1375 441 1716 441 
Q 2309 441 2620 675 
Q 2931 909 2931 1356 
Q 2931 1769 2642 2001 
Q 2353 2234 1838 2234 
L 1294 2234 
L 1294 2753 
L 1863 2753 
Q 2328 2753 2575 2939 
Q 2822 3125 2822 3475 
Q 2822 3834 2567 4026 
Q 2313 4219 1838 4219 
Q 1578 4219 1281 4162 
Q 984 4106 628 3988 
L 628 4550 
Q 988 4650 1302 4700 
Q 1616 4750 1894 4750 
Q 2613 4750 3031 4423 
Q 3450 4097 3450 3541 
Q 3450 3153 3228 2886 
Q 3006 2619 2597 2516 
z
" transform="scale(0.015625)"/>
       </defs>
       <use xlink:href="#DejaVuSans-49"/>
       <use xlink:href="#DejaVuSans-47" x="29.492188"/>
       <use xlink:href="#DejaVuSans-48" x="106.982422"/>
       <use xlink:href="#DejaVuSans-56" x="182.177734"/>
       <use xlink:href="#DejaVuSans-33" x="250.585938"/>
       <use xlink:href="#DejaVuSans-2d" x="314.208984"/>
       <use xlink:href="#DejaVuSans-31" x="350.292969"/>
       <use xlink:href="#DejaVuSans-31" x="413.916016"/>
      </g>
     </g>
    </g>
    <g id="xtick_6">
     <g id="line2d_6">
      <g>
       <use xlink:href="#mf989152137" x="261.069632" y="512.64" style="stroke: #000000; stroke-width: 0.8"/>
      </g>
     </g>
     <g id="text_6">
      <!-- IGHV3-15 -->
      <g transform="translate(263.829007 567.394688) rotate(-90) scale(0.1 -0.1)">
       <defs>
        <path id="DejaVuSans-35" d="M 691 4666 
L 3169 4666 
L 3169 4134 
L 1269 4134 
L 1269 2991 
Q 1406 3038 1543 3061 
Q 1681 3084 1819 3084 
Q 2600 3084 3056 2656 
Q 3513 2228 3513 1497 
Q 3513 744 3044 326 
Q 2575 -91 1722 -91 
Q 1428 -91 1123 -41 
Q 819 9 494 109 
L 494 744 
Q 775 591 1075 516 
Q 1375 441 1709 441 
Q 2250 441 2565 725 
Q 2881 1009 2881 1497 
Q 2881 1984 2565 2268 
Q 2250 2553 1709 2553 
Q 1456 2553 1204 2497 
Q 953 2441 691 2322 
L 691 4666 
z
" transform="scale(0.015625)"/>
       </defs>
       <use xlink:href="#DejaVuSans-49"/>
       <use xlink:href="#DejaVuSans-47" x="29.492188"/>
       <use xlink:href="#DejaVuSans-48" x="106.982422"/>
       <use xlink:href="#DejaVuSans-56" x="182.177734"/>
       <use xlink:href="#DejaVuSans-33" x="250.585938"/>
       <use xlink:href="#DejaVuSans-2d" x="314.208984"/>
       <use xlink:href="#DejaVuSans-31" x="350.292969"/>
       <use xlink:href="#DejaVuSans-35" x="413.916016"/>
      </g>
     </g>
    </g>
    <g id="xtick_7">
     <g id="line2d_7">
      <g>
       <use xlink:href="#mf989152137" x="288.052224" y="512.64" style="stroke: #000000; stroke-width: 0.8"/>
      </g>
     </g>
     <g id="text_7">
      <!-- IGHV3-21 -->
      <g transform="translate(290.811599 567.394688) rotate(-90) scale(0.1 -0.1)">
       <use xlink:href="#DejaVuSans-49"/>
       <use xlink:href="#DejaVuSans-47" x="29.492188"/>
       <use xlink:href="#DejaVuSans-48" x="106.982422"/>
       <use xlink:href="#DejaVuSans-56" x="182.177734"/>
       <use xlink:href="#DejaVuSans-33" x="250.585938"/>
       <use xlink:href="#DejaVuSans-2d" x="314.208984"/>
       <use xlink:href="#DejaVuSans-32" x="350.292969"/>
       <use xlink:href="#DejaVuSans-31" x="413.916016"/>
      </g>
     </g>
    </g>
    <g id="xtick_8">
     <g id="line2d_8">
      <g>
       <use xlink:href="#mf989152137" x="315.034816" y="512.64" style="stroke: #000000; stroke-width: 0.8"/>
      </g>
     </g>
     <g id="text_8">
      <!-- IGHV3-23 -->
      <g transform="translate(317.794191 567.394688) rotate(-90) scale(0.1 -0.1)">
       <use xlink:href="#DejaVuSans-49"/>
       <use xlink:href="#DejaVuSans-47" x="29.492188"/>
       <use xlink:href="#DejaVuSans-48" x="106.982422"/>
       <use xlink:href="#DejaVuSans-56" x="182.177734"/>
       <use xlink:href="#DejaVuSans-33" x="250.585938"/>
       <use xlink:href="#DejaVuSans-2d" x="314.208984"/>
       <use xlink:href="#DejaVuSans-32" x="350.292969"/>
       <use xlink:href="#DejaVuSans-33" x="413.916016"/>
      </g>
     </g>
    </g>
    <g id="xtick_9">
     <g id="line2d_9">
      <g>
       <use xlink:href="#mf989152137" x="342.017408" y="512.64" style="stroke: #000000; stroke-width: 0.8"/>
      </g>
     </g>
     <g id="text_9">
      <!-- IGHV3-30 -->
      <g transform="translate(344.776783 567.394688) rotate(-90) scale(0.1 -0.1)">
       <defs>
        <path id="DejaVuSans-30" d="M 2034 4250 
Q 1547 4250 1301 3770 
Q 1056 3291 1056 2328 
Q 1056 1369 1301 889 
Q 1547 409 2034 409 
Q 2525 409 2770 889 
Q 3016 1369 3016 2328 
Q 3016 3291 2770 3770 
Q 2525 4250 2034 4250 
z
M 2034 4750 
Q 2819 4750 3233 4129 
Q 3647 3509 3647 2328 
Q 3647 1150 3233 529 
Q 2819 -91 2034 -91 
Q 1250 -91 836 529 
Q 422 1150 422 2328 
Q 422 3509 836 4129 
Q 1250 4750 2034 4750 
z
" transform="scale(0.015625)"/>
       </defs>
       <use xlink:href="#DejaVuSans-49"/>
       <use xlink:href="#DejaVuSans-47" x="29.492188"/>
       <use xlink:href="#DejaVuSans-48" x="106.982422"/>
       <use xlink:href="#DejaVuSans-56" x="182.177734"/>
       <use xlink:href="#DejaVuSans-33" x="250.585938"/>
       <use xlink:href="#DejaVuSans-2d" x="314.208984"/>
       <use xlink:href="#DejaVuSans-33" x="350.292969"/>
       <use xlink:href="#DejaVuSans-30" x="413.916016"/>
      </g>
     </g>
    </g>
    <g id="xtick_10">
     <g id="line2d_10">
      <g>
       <use xlink:href="#mf989152137" x="369" y="512.64" style="stroke: #000000; stroke-width: 0.8"/>
      </g>
     </g>
     <g id="text_10">
      <!-- IGHV3-33 -->
      <g transform="translate(371.759375 567.394688) rotate(-90) scale(0.1 -0.1)">
       <use xlink:href="#DejaVuSans-49"/>
       <use xlink:href="#DejaVuSans-47" x="29.492188"/>
       <use xlink:href="#DejaVuSans-48" x="106.982422"/>
       <use xlink:href="#DejaVuSans-56" x="182.177734"/>
       <use xlink:href="#DejaVuSans-33" x="250.585938"/>
       <use xlink:href="#DejaVuSans-2d" x="314.208984"/>
       <use xlink:href="#DejaVuSans-33" x="350.292969"/>
       <use xlink:href="#DejaVuSans-33" x="413.916016"/>
      </g>
     </g>
    </g>
    <g id="xtick_11">
     <g id="line2d_11">
      <g>
       <use xlink:href="#mf989152137" x="395.982592" y="512.64" style="stroke: #000000; stroke-width: 0.8"/>
      </g>
     </g>
     <g id="text_11">
      <!-- IGHV3-48 -->
      <g transform="translate(398.741967 567.394688) rotate(-90) scale(0.1 -0.1)">
       <defs>
        <path id="DejaVuSans-38" d="M 2034 2216 
Q 1584 2216 1326 1975 
Q 1069 1734 1069 1313 
Q 1069 891 1326 650 
Q 1584 409 2034 409 
Q 2484 409 2743 651 
Q 3003 894 3003 1313 
Q 3003 1734 2745 1975 
Q 2488 2216 2034 2216 
z
M 1403 2484 
Q 997 2584 770 2862 
Q 544 3141 544 3541 
Q 544 4100 942 4425 
Q 1341 4750 2034 4750 
Q 2731 4750 3128 4425 
Q 3525 4100 3525 3541 
Q 3525 3141 3298 2862 
Q 3072 2584 2669 2484 
Q 3125 2378 3379 2068 
Q 3634 1759 3634 1313 
Q 3634 634 3220 271 
Q 2806 -91 2034 -91 
Q 1263 -91 848 271 
Q 434 634 434 1313 
Q 434 1759 690 2068 
Q 947 2378 1403 2484 
z
M 1172 3481 
Q 1172 3119 1398 2916 
Q 1625 2713 2034 2713 
Q 2441 2713 2670 2916 
Q 2900 3119 2900 3481 
Q 2900 3844 2670 4047 
Q 2441 4250 2034 4250 
Q 1625 4250 1398 4047 
Q 1172 3844 1172 3481 
z
" transform="scale(0.015625)"/>
       </defs>
       <use xlink:href="#DejaVuSans-49"/>
       <use xlink:href="#DejaVuSans-47" x="29.492188"/>
       <use xlink:href="#DejaVuSans-48" x="106.982422"/>
       <use xlink:href="#DejaVuSans-56" x="182.177734"/>
       <use xlink:href="#DejaVuSans-33" x="250.585938"/>
       <use xlink:href="#DejaVuSans-2d" x="314.208984"/>
       <use xlink:href="#DejaVuSans-34" x="350.292969"/>
       <use xlink:href="#DejaVuSans-38" x="413.916016"/>
      </g>
     </g>
    </g>
    <g id="xtick_12">
     <g id="line2d_12">
      <g>
       <use xlink:href="#mf989152137" x="422.965184" y="512.64" style="stroke: #000000; stroke-width: 0.8"/>
      </g>
     </g>
     <g id="text_12">
      <!-- IGHV3-7 -->
      <g transform="translate(425.724559 561.032187) rotate(-90) scale(0.1 -0.1)">
       <defs>
        <path id="DejaVuSans-37" d="M 525 4666 
L 3525 4666 
L 3525 4397 
L 1831 0 
L 1172 0 
L 2766 4134 
L 525 4134 
L 525 4666 
z
" transform="scale(0.015625)"/>
       </defs>
       <use xlink:href="#DejaVuSans-49"/>
       <use xlink:href="#DejaVuSans-47" x="29.492188"/>
       <use xlink:href="#DejaVuSans-48" x="106.982422"/>
       <use xlink:href="#DejaVuSans-56" x="182.177734"/>
       <use xlink:href="#DejaVuSans-33" x="250.585938"/>
       <use xlink:href="#DejaVuSans-2d" x="314.208984"/>
       <use xlink:href="#DejaVuSans-37" x="350.292969"/>
      </g>
     </g>
    </g>
    <g id="xtick_13">
     <g id="line2d_13">
      <g>
       <use xlink:href="#mf989152137" x="449.947776" y="512.64" style="stroke: #000000; stroke-width: 0.8"/>
      </g>
     </g>
     <g id="text_13">
      <!-- IGHV3-74 -->
      <g transform="translate(452.707151 567.394688) rotate(-90) scale(0.1 -0.1)">
       <use xlink:href="#DejaVuSans-49"/>
       <use xlink:href="#DejaVuSans-47" x="29.492188"/>
       <use xlink:href="#DejaVuSans-48" x="106.982422"/>
       <use xlink:href="#DejaVuSans-56" x="182.177734"/>
       <use xlink:href="#DejaVuSans-33" x="250.585938"/>
       <use xlink:href="#DejaVuSans-2d" x="314.208984"/>
       <use xlink:href="#DejaVuSans-37" x="350.292969"/>
       <use xlink:href="#DejaVuSans-34" x="413.916016"/>
      </g>
     </g>
    </g>
    <g id="xtick_14">
     <g id="line2d_14">
      <g>
       <use xlink:href="#mf989152137" x="476.930368" y="512.64" style="stroke: #000000; stroke-width: 0.8"/>
      </g>
     </g>
     <g id="text_14">
      <!-- IGHV3-9 -->
      <g transform="translate(479.689743 561.032187) rotate(-90) scale(0.1 -0.1)">
       <use xlink:href="#DejaVuSans-49"/>
       <use xlink:href="#DejaVuSans-47" x="29.492188"/>
       <use xlink:href="#DejaVuSans-48" x="106.982422"/>
       <use xlink:href="#DejaVuSans-56" x="182.177734"/>
       <use xlink:href="#DejaVuSans-33" x="250.585938"/>
       <use xlink:href="#DejaVuSans-2d" x="314.208984"/>
       <use xlink:href="#DejaVuSans-39" x="350.292969"/>
      </g>
     </g>
    </g>
    <g id="xtick_15">
     <g id="line2d_15">
      <g>
       <use xlink:href="#mf989152137" x="503.912959" y="512.64" style="stroke: #000000; stroke-width: 0.8"/>
      </g>
     </g>
     <g id="text_15">
      <!-- IGHV4-34 -->
      <g transform="translate(506.672334 567.394688) rotate(-90) scale(0.1 -0.1)">
       <use xlink:href="#DejaVuSans-49"/>
       <use xlink:href="#DejaVuSans-47" x="29.492188"/>
       <use xlink:href="#DejaVuSans-48" x="106.982422"/>
       <use xlink:href="#DejaVuSans-56" x="182.177734"/>
       <use xlink:href="#DejaVuSans-34" x="250.585938"/>
       <use xlink:href="#DejaVuSans-2d" x="314.208984"/>
       <use xlink:href="#DejaVuSans-33" x="350.292969"/>
       <use xlink:href="#DejaVuSans-34" x="413.916016"/>
      </g>
     </g>
    </g>
    <g id="xtick_16">
     <g id="line2d_16">
      <g>
       <use xlink:href="#mf989152137" x="530.895551" y="512.64" style="stroke: #000000; stroke-width: 0.8"/>
      </g>
     </g>
     <g id="text_16">
      <!-- IGHV4-39 -->
      <g transform="translate(533.654926 567.394688) rotate(-90) scale(0.1 -0.1)">
       <use xlink:href="#DejaVuSans-49"/>
       <use xlink:href="#DejaVuSans-47" x="29.492188"/>
       <use xlink:href="#DejaVuSans-48" x="106.982422"/>
       <use xlink:href="#DejaVuSans-56" x="182.177734"/>
       <use xlink:href="#DejaVuSans-34" x="250.585938"/>
       <use xlink:href="#DejaVuSans-2d" x="314.208984"/>
       <use xlink:href="#DejaVuSans-33" x="350.292969"/>
       <use xlink:href="#DejaVuSans-39" x="413.916016"/>
      </g>
     </g>
    </g>
    <g id="xtick_17">
     <g id="line2d_17">
      <g>
       <use xlink:href="#mf989152137" x="557.878143" y="512.64" style="stroke: #000000; stroke-width: 0.8"/>
      </g>
     </g>
     <g id="text_17">
      <!-- IGHV4-59 -->
      <g transform="translate(560.637518 567.394688) rotate(-90) scale(0.1 -0.1)">
       <use xlink:href="#DejaVuSans-49"/>
       <use xlink:href="#DejaVuSans-47" x="29.492188"/>
       <use xlink:href="#DejaVuSans-48" x="106.982422"/>
       <use xlink:href="#DejaVuSans-56" x="182.177734"/>
       <use xlink:href="#DejaVuSans-34" x="250.585938"/>
       <use xlink:href="#DejaVuSans-2d" x="314.208984"/>
       <use xlink:href="#DejaVuSans-35" x="350.292969"/>
       <use xlink:href="#DejaVuSans-39" x="413.916016"/>
      </g>
     </g>
    </g>
    <g id="xtick_18">
     <g id="line2d_18">
      <g>
       <use xlink:href="#mf989152137" x="584.860735" y="512.64" style="stroke: #000000; stroke-width: 0.8"/>
      </g>
     </g>
     <g id="text_18">
      <!-- IGHV5-10-1 -->
      <g transform="translate(587.62011 577.365) rotate(-90) scale(0.1 -0.1)">
       <use xlink:href="#DejaVuSans-49"/>
       <use xlink:href="#DejaVuSans-47" x="29.492188"/>
       <use xlink:href="#DejaVuSans-48" x="106.982422"/>
       <use xlink:href="#DejaVuSans-56" x="182.177734"/>
       <use xlink:href="#DejaVuSans-35" x="250.585938"/>
       <use xlink:href="#DejaVuSans-2d" x="314.208984"/>
       <use xlink:href="#DejaVuSans-31" x="350.292969"/>
       <use xlink:href="#DejaVuSans-30" x="413.916016"/>
       <use xlink:href="#DejaVuSans-2d" x="477.539062"/>
       <use xlink:href="#DejaVuSans-31" x="513.623047"/>
      </g>
     </g>
    </g>
    <g id="xtick_19">
     <g id="line2d_19">
      <g>
       <use xlink:href="#mf989152137" x="611.843327" y="512.64" style="stroke: #000000; stroke-width: 0.8"/>
      </g>
     </g>
     <g id="text_19">
      <!-- IGHV5-51 -->
      <g transform="translate(614.602702 567.394688) rotate(-90) scale(0.1 -0.1)">
       <use xlink:href="#DejaVuSans-49"/>
       <use xlink:href="#DejaVuSans-47" x="29.492188"/>
       <use xlink:href="#DejaVuSans-48" x="106.982422"/>
       <use xlink:href="#DejaVuSans-56" x="182.177734"/>
       <use xlink:href="#DejaVuSans-35" x="250.585938"/>
       <use xlink:href="#DejaVuSans-2d" x="314.208984"/>
       <use xlink:href="#DejaVuSans-35" x="350.292969"/>
       <use xlink:href="#DejaVuSans-31" x="413.916016"/>
      </g>
     </g>
    </g>
   </g>
   <g id="matplotlib.axis_2">
    <g id="ytick_1">
     <g id="line2d_20">
      <defs>
       <path id="m8f9f6e893a" d="M 0 0 
L -3.5 0 
" style="stroke: #000000; stroke-width: 0.8"/>
      </defs>
      <g>
       <use xlink:href="#m8f9f6e893a" x="90" y="512.64" style="stroke: #000000; stroke-width: 0.8"/>
      </g>
     </g>
     <g id="text_20">
      <!-- 0 -->
      <g transform="translate(76.6375 516.439219) scale(0.1 -0.1)">
       <use xlink:href="#DejaVuSans-30"/>
      </g>
     </g>
    </g>
    <g id="ytick_2">
     <g id="line2d_21">
      <g>
       <use xlink:href="#m8f9f6e893a" x="90" y="457.061053" style="stroke: #000000; stroke-width: 0.8"/>
      </g>
     </g>
     <g id="text_21">
      <!-- 10 -->
      <g transform="translate(70.275 460.860271) scale(0.1 -0.1)">
       <use xlink:href="#DejaVuSans-31"/>
       <use xlink:href="#DejaVuSans-30" x="63.623047"/>
      </g>
     </g>
    </g>
    <g id="ytick_3">
     <g id="line2d_22">
      <g>
       <use xlink:href="#m8f9f6e893a" x="90" y="401.482105" style="stroke: #000000; stroke-width: 0.8"/>
      </g>
     </g>
     <g id="text_22">
      <!-- 20 -->
      <g transform="translate(70.275 405.281324) scale(0.1 -0.1)">
       <use xlink:href="#DejaVuSans-32"/>
       <use xlink:href="#DejaVuSans-30" x="63.623047"/>
      </g>
     </g>
    </g>
    <g id="ytick_4">
     <g id="line2d_23">
      <g>
       <use xlink:href="#m8f9f6e893a" x="90" y="345.903158" style="stroke: #000000; stroke-width: 0.8"/>
      </g>
     </g>
     <g id="text_23">
      <!-- 30 -->
      <g transform="translate(70.275 349.702377) scale(0.1 -0.1)">
       <use xlink:href="#DejaVuSans-33"/>
       <use xlink:href="#DejaVuSans-30" x="63.623047"/>
      </g>
     </g>
    </g>
    <g id="ytick_5">
     <g id="line2d_24">
      <g>
       <use xlink:href="#m8f9f6e893a" x="90" y="290.324211" style="stroke: #000000; stroke-width: 0.8"/>
      </g>
     </g>
     <g id="text_24">
      <!-- 40 -->
      <g transform="translate(70.275 294.123429) scale(0.1 -0.1)">
       <use xlink:href="#DejaVuSans-34"/>
       <use xlink:href="#DejaVuSans-30" x="63.623047"/>
      </g>
     </g>
    </g>
    <g id="ytick_6">
     <g id="line2d_25">
      <g>
       <use xlink:href="#m8f9f6e893a" x="90" y="234.745263" style="stroke: #000000; stroke-width: 0.8"/>
      </g>
     </g>
     <g id="text_25">
      <!-- 50 -->
      <g transform="translate(70.275 238.544482) scale(0.1 -0.1)">
       <use xlink:href="#DejaVuSans-35"/>
       <use xlink:href="#DejaVuSans-30" x="63.623047"/>
      </g>
     </g>
    </g>
    <g id="ytick_7">
     <g id="line2d_26">
      <g>
       <use xlink:href="#m8f9f6e893a" x="90" y="179.166316" style="stroke: #000000; stroke-width: 0.8"/>
      </g>
     </g>
     <g id="text_26">
      <!-- 60 -->
      <g transform="translate(70.275 182.965535) scale(0.1 -0.1)">
       <use xlink:href="#DejaVuSans-36"/>
       <use xlink:href="#DejaVuSans-30" x="63.623047"/>
      </g>
     </g>
    </g>
    <g id="ytick_8">
     <g id="line2d_27">
      <g>
       <use xlink:href="#m8f9f6e893a" x="90" y="123.587368" style="stroke: #000000; stroke-width: 0.8"/>
      </g>
     </g>
     <g id="text_27">
      <!-- 70 -->
      <g transform="translate(70.275 127.386587) scale(0.1 -0.1)">
       <use xlink:href="#DejaVuSans-37"/>
       <use xlink:href="#DejaVuSans-30" x="63.623047"/>
      </g>
     </g>
    </g>
    <g id="text_28">
     <!-- % of sequences -->
     <g transform="translate(63.363438 346.107813) rotate(-90) scale(0.14 -0.14)">
      <defs>
       <path id="DejaVuSans-25" d="M 4653 2053 
Q 4381 2053 4226 1822 
Q 4072 1591 4072 1178 
Q 4072 772 4226 539 
Q 4381 306 4653 306 
Q 4919 306 5073 539 
Q 5228 772 5228 1178 
Q 5228 1588 5073 1820 
Q 4919 2053 4653 2053 
z
M 4653 2450 
Q 5147 2450 5437 2106 
Q 5728 1763 5728 1178 
Q 5728 594 5436 251 
Q 5144 -91 4653 -91 
Q 4153 -91 3862 251 
Q 3572 594 3572 1178 
Q 3572 1766 3864 2108 
Q 4156 2450 4653 2450 
z
M 1428 4353 
Q 1159 4353 1004 4120 
Q 850 3888 850 3481 
Q 850 3069 1003 2837 
Q 1156 2606 1428 2606 
Q 1700 2606 1854 2837 
Q 2009 3069 2009 3481 
Q 2009 3884 1853 4118 
Q 1697 4353 1428 4353 
z
M 4250 4750 
L 4750 4750 
L 1831 -91 
L 1331 -91 
L 4250 4750 
z
M 1428 4750 
Q 1922 4750 2215 4408 
Q 2509 4066 2509 3481 
Q 2509 2891 2217 2550 
Q 1925 2209 1428 2209 
Q 931 2209 642 2551 
Q 353 2894 353 3481 
Q 353 4063 643 4406 
Q 934 4750 1428 4750 
z
" transform="scale(0.015625)"/>
       <path id="DejaVuSans-20" transform="scale(0.015625)"/>
       <path id="DejaVuSans-6f" d="M 1959 3097 
Q 1497 3097 1228 2736 
Q 959 2375 959 1747 
Q 959 1119 1226 758 
Q 1494 397 1959 397 
Q 2419 397 2687 759 
Q 2956 1122 2956 1747 
Q 2956 2369 2687 2733 
Q 2419 3097 1959 3097 
z
M 1959 3584 
Q 2709 3584 3137 3096 
Q 3566 2609 3566 1747 
Q 3566 888 3137 398 
Q 2709 -91 1959 -91 
Q 1206 -91 779 398 
Q 353 888 353 1747 
Q 353 2609 779 3096 
Q 1206 3584 1959 3584 
z
" transform="scale(0.015625)"/>
       <path id="DejaVuSans-66" d="M 2375 4863 
L 2375 4384 
L 1825 4384 
Q 1516 4384 1395 4259 
Q 1275 4134 1275 3809 
L 1275 3500 
L 2222 3500 
L 2222 3053 
L 1275 3053 
L 1275 0 
L 697 0 
L 697 3053 
L 147 3053 
L 147 3500 
L 697 3500 
L 697 3744 
Q 697 4328 969 4595 
Q 1241 4863 1831 4863 
L 2375 4863 
z
" transform="scale(0.015625)"/>
       <path id="DejaVuSans-73" d="M 2834 3397 
L 2834 2853 
Q 2591 2978 2328 3040 
Q 2066 3103 1784 3103 
Q 1356 3103 1142 2972 
Q 928 2841 928 2578 
Q 928 2378 1081 2264 
Q 1234 2150 1697 2047 
L 1894 2003 
Q 2506 1872 2764 1633 
Q 3022 1394 3022 966 
Q 3022 478 2636 193 
Q 2250 -91 1575 -91 
Q 1294 -91 989 -36 
Q 684 19 347 128 
L 347 722 
Q 666 556 975 473 
Q 1284 391 1588 391 
Q 1994 391 2212 530 
Q 2431 669 2431 922 
Q 2431 1156 2273 1281 
Q 2116 1406 1581 1522 
L 1381 1569 
Q 847 1681 609 1914 
Q 372 2147 372 2553 
Q 372 3047 722 3315 
Q 1072 3584 1716 3584 
Q 2034 3584 2315 3537 
Q 2597 3491 2834 3397 
z
" transform="scale(0.015625)"/>
       <path id="DejaVuSans-65" d="M 3597 1894 
L 3597 1613 
L 953 1613 
Q 991 1019 1311 708 
Q 1631 397 2203 397 
Q 2534 397 2845 478 
Q 3156 559 3463 722 
L 3463 178 
Q 3153 47 2828 -22 
Q 2503 -91 2169 -91 
Q 1331 -91 842 396 
Q 353 884 353 1716 
Q 353 2575 817 3079 
Q 1281 3584 2069 3584 
Q 2775 3584 3186 3129 
Q 3597 2675 3597 1894 
z
M 3022 2063 
Q 3016 2534 2758 2815 
Q 2500 3097 2075 3097 
Q 1594 3097 1305 2825 
Q 1016 2553 972 2059 
L 3022 2063 
z
" transform="scale(0.015625)"/>
       <path id="DejaVuSans-71" d="M 947 1747 
Q 947 1113 1208 752 
Q 1469 391 1925 391 
Q 2381 391 2643 752 
Q 2906 1113 2906 1747 
Q 2906 2381 2643 2742 
Q 2381 3103 1925 3103 
Q 1469 3103 1208 2742 
Q 947 2381 947 1747 
z
M 2906 525 
Q 2725 213 2448 61 
Q 2172 -91 1784 -91 
Q 1150 -91 751 415 
Q 353 922 353 1747 
Q 353 2572 751 3078 
Q 1150 3584 1784 3584 
Q 2172 3584 2448 3432 
Q 2725 3281 2906 2969 
L 2906 3500 
L 3481 3500 
L 3481 -1331 
L 2906 -1331 
L 2906 525 
z
" transform="scale(0.015625)"/>
       <path id="DejaVuSans-75" d="M 544 1381 
L 544 3500 
L 1119 3500 
L 1119 1403 
Q 1119 906 1312 657 
Q 1506 409 1894 409 
Q 2359 409 2629 706 
Q 2900 1003 2900 1516 
L 2900 3500 
L 3475 3500 
L 3475 0 
L 2900 0 
L 2900 538 
Q 2691 219 2414 64 
Q 2138 -91 1772 -91 
Q 1169 -91 856 284 
Q 544 659 544 1381 
z
M 1991 3584 
L 1991 3584 
z
" transform="scale(0.015625)"/>
       <path id="DejaVuSans-6e" d="M 3513 2113 
L 3513 0 
L 2938 0 
L 2938 2094 
Q 2938 2591 2744 2837 
Q 2550 3084 2163 3084 
Q 1697 3084 1428 2787 
Q 1159 2491 1159 1978 
L 1159 0 
L 581 0 
L 581 3500 
L 1159 3500 
L 1159 2956 
Q 1366 3272 1645 3428 
Q 1925 3584 2291 3584 
Q 2894 3584 3203 3211 
Q 3513 2838 3513 2113 
z
" transform="scale(0.015625)"/>
       <path id="DejaVuSans-63" d="M 3122 3366 
L 3122 2828 
Q 2878 2963 2633 3030 
Q 2388 3097 2138 3097 
Q 1578 3097 1268 2742 
Q 959 2388 959 1747 
Q 959 1106 1268 751 
Q 1578 397 2138 397 
Q 2388 397 2633 464 
Q 2878 531 3122 666 
L 3122 134 
Q 2881 22 2623 -34 
Q 2366 -91 2075 -91 
Q 1284 -91 818 406 
Q 353 903 353 1747 
Q 353 2603 823 3093 
Q 1294 3584 2113 3584 
Q 2378 3584 2631 3529 
Q 2884 3475 3122 3366 
z
" transform="scale(0.015625)"/>
      </defs>
      <use xlink:href="#DejaVuSans-25"/>
      <use xlink:href="#DejaVuSans-20" x="95.019531"/>
      <use xlink:href="#DejaVuSans-6f" x="126.806641"/>
      <use xlink:href="#DejaVuSans-66" x="187.988281"/>
      <use xlink:href="#DejaVuSans-20" x="223.193359"/>
      <use xlink:href="#DejaVuSans-73" x="254.980469"/>
      <use xlink:href="#DejaVuSans-65" x="307.080078"/>
      <use xlink:href="#DejaVuSans-71" x="368.603516"/>
      <use xlink:href="#DejaVuSans-75" x="432.080078"/>
      <use xlink:href="#DejaVuSans-65" x="495.458984"/>
      <use xlink:href="#DejaVuSans-6e" x="556.982422"/>
      <use xlink:href="#DejaVuSans-63" x="620.361328"/>
      <use xlink:href="#DejaVuSans-65" x="675.341797"/>
      <use xlink:href="#DejaVuSans-73" x="736.865234"/>
     </g>
    </g>
   </g>
   <g id="patch_22">
    <path d="M 90 512.64 
L 90 69.12 
" style="fill: none; stroke: #000000; stroke-width: 0.8; stroke-linejoin: miter; stroke-linecap: square"/>
   </g>
   <g id="patch_23">
    <path d="M 648 512.64 
L 648 69.12 
" style="fill: none; stroke: #000000; stroke-width: 0.8; stroke-linejoin: miter; stroke-linecap: square"/>
   </g>
   <g id="patch_24">
    <path d="M 90 512.64 
L 648 512.64 
" style="fill: none; stroke: #000000; stroke-width: 0.8; stroke-linejoin: miter; stroke-linecap: square"/>
   </g>
   <g id="patch_25">
    <path d="M 90 69.12 
L 648 69.12 
" style="fill: none; stroke: #000000; stroke-width: 0.8; stroke-linejoin: miter; stroke-linecap: square"/>
   </g>
  </g>
 </g>
 <defs>
  <clipPath id="p410f49a929">
   <rect x="90" y="69.12" width="558" height="443.52"/>
  </clipPath>
 </defs>
</svg>
